# xmcd CD database file
#
# Track frame offsets:
#	150
#	17451
#	48377
#	73406
#	101582
#	123614
#	150206
#	171171
#	190305
#	209482
#	231755
#	254194
#	279202
#	295917
#	314972
#
# Disc length: 4446 seconds
#
# Revision: 0
# Processed by: cddbd v1.4PL0 Copyright (c) Steve Scherf et al.
# Submitted via: CDex 1.50
#
DISCID=e5115c0f
DTITLE=Variados - Salsa de Oro Vol. 1
DYEAR=2003
DGENRE=Salsa
TTITLE0=Oscar D'Leon - Lloraras
TTITLE1=Willy Colon - Gitana
TTITLE2=Hector Lavoe - La Murga
TTITLE3=Joe Arroyo - La Rebelion
TTITLE4=Latin Brothers - El Preso
TTITLE5=Sonora Ponceña - Fuego En El 23
TTITLE6=Ismael Rivera - No Soy Para Ti
TTITLE7=Angel Canales - Lejos de Ti
TTITLE8=Oscar D'Leon - Rumba Rumbero
TTITLE9=El Gran Combo de Puerto Rico - Un Verano En Nueva York
TTITLE10=Costa Brava - Tu Precio
TTITLE11=Dimension Latina - Compadre Querido
TTITLE12=Maelo Rivera - El Nazareno
TTITLE13=Roberto Roena - Estas Equivocado
TTITLE14=Larry Harlow - El Paso De La Encarnacion
EXTD=YEAR: 2003
EXTT0=
EXTT1=
EXTT2=
EXTT3=
EXTT4=
EXTT5=
EXTT6=
EXTT7=
EXTT8=
EXTT9=
EXTT10=
EXTT11=
EXTT12=
EXTT13=
EXTT14=
PLAYORDER=
